<?xml version="1.0" encoding="UTF-8"?>
<svg id="uuid-4f414fb5-2437-442d-9bfb-1d1b74d77015" data-name="Layer 1" xmlns="http://www.w3.org/2000/svg" viewBox="84.00 56.90 1163.40 240.90">
  <path d="M309.624859,116.35932c-19.602539,0-34.364746,7.018555-43.802734,20.812012v-19.117676h-32.187012v170.836426l33.880859-7v-52.999023c7.986328,9.922852,20.570312,16.214844,38.720703,16.214844,30.976562,0,59.774902-23.474609,59.774902-64.615234,0-42.350586-25.894043-64.131348-56.386719-64.131348ZM298.976422,214.612738c-18.634277,0-32.186523-12.099609-32.186523-34.364258,0-21.780273,14.520508-33.396484,34.122559-33.396484,17.182617,0,30.976562,11.374023,30.976562,34.12207,0,22.506836-14.762207,33.638672-32.912598,33.638672Z"/>
  <path d="M94.651599,194.768988c14.036621,9.921875,35.816895,19.84375,59.291504,19.84375,21.295898,0,33.880371-7.744141,33.880371-20.328125,0-12.100586-13.068359-16.94043-34.122559-20.085938-29.040527-4.598633-58.323242-12.584961-58.323242-48.643066,0-33.396484,27.830566-53.240234,68.245117-53.240234,23.958496,0,40.898926,6.291992,51.062988,13.067383v34.848633c-12.100098-8.954102-33.880371-15.97168-53.48291-15.97168-17.666016,0-30.008301,7.501953-30.008301,19.84375,0,12.82666,12.583984,16.214355,36.058594,20.086426,26.862305,4.597656,56.387207,11.616211,56.387207,48.642578,0,41.625-41.382812,53.966797-70.181641,53.966797-26.862305,0-47.190918-8.469727-58.807129-16.698242v-35.332031Z"/>
  <path d="M496.686322,176.618597c0-44.771484-29.040527-61.710449-58.322754-61.710449-34.606934,0-63.163574,23.95752-63.163574,67.518066,0,42.592773,30.008789,64.131836,65.825195,64.131836,21.296387,0,40.172852-5.324219,50.579102-15.004883v-28.798828c-12.826172,10.40625-28.314453,14.27832-45.73877,14.27832-19.118164,0-33.638672-6.049805-37.75293-24.442383h87.605957c.726074-5.807617.967773-11.131836.967773-15.97168ZM408.112591,168.147894c3.388184-17.423828,14.27832-24.442383,31.21875-24.442383,14.27832,0,25.410645,6.291992,26.620605,24.442383h-57.839355Z"/>
  <path d="M613.959576,203.238715l.483887,30.976562c-9.196289,7.744141-23.232422,12.342773-41.140625,12.342773-33.154785,0-66.067383-21.539062-66.067383-66.067383,0-44.771484,34.123047-65.58252,67.76123-65.58252,16.214355,0,31.702637,5.323242,39.688965,11.616211l-.242188,32.186035c-9.921875-7.744141-21.538086-12.826172-35.816406-12.826172-20.8125,0-36.784668,10.889648-36.784668,34.606445,0,24.200195,17.666016,35.332031,37.752441,35.332031,13.794434,0,24.68457-5.56543,34.364746-12.583984Z"/>
  <path d="M674.36192,119.747992l-13.794434,123.663574h-35.574707l23.232422-167.950684h43.013184l41.930664,94.983887,41.20459-94.983887h42.770996l23.232422,167.950684h-37.269043l-13.793945-123.663574-42.834961,104.663574h-27.830566l-44.286621-104.663574Z"/>
  <path d="M902.832135,114.908148c-17.182617,0-36.058594,5.323242-45.254883,13.067383v30.008301c7.260254-6.776367,23.232422-13.30957,45.254883-13.30957,19.118164,0,26.862305,6.291992,26.862305,13.067383,0,3.87207-3.629883,6.050781-11.85791,7.744141-4.598145.726562-10.890137,1.936523-19.360352,2.904297-29.040527,2.904297-50.821289,10.648438-50.821289,40.898438,0,23.474609,18.876465,36.05957,42.351074,36.05957,15.972168,0,30.492188-5.324219,40.656738-18.634766v16.698242h31.944336v-76.231445c0-30.976562-15.972168-52.271973-59.774902-52.271973ZM929.69444,193.800238c0,18.876953-19.118164,24.442383-33.880371,24.68457-9.922363,0-15.972168-3.87207-15.972168-11.857422,0-7.986328,6.533691-12.100586,23.474121-14.762695,8.470215-1.209961,18.876465-2.419922,26.378418-5.566406v7.501953Z"/>
  <path d="M1072.327252,73.716742v58.856934c-7.98584-9.921387-20.570312-16.214355-38.720703-16.214355-30.976562,0-60.01709,23.474121-60.01709,64.614746,0,42.351562,26.136719,64.131836,56.629395,64.131836,19.602051,0,34.364258-7.018555,43.802734-20.8125v19.118164h32.186523V67.716742l-33.880859,6ZM1038.930768,214.612738c-17.182129,0-30.976562-11.374023-30.976562-34.12207,0-22.506836,14.762207-33.638672,32.670898-33.638672,18.875977,0,32.67041,12.099609,32.67041,34.364258,0,21.296875-15.004395,33.396484-34.364746,33.396484Z"/>
  <path d="M1238.250104,176.618597c0-44.771484-29.041016-61.710449-58.323242-61.710449-34.606445,0-63.163574,23.95752-63.163574,67.518066,0,42.592773,30.008301,64.131836,65.825684,64.131836,21.295898,0,40.172852-5.324219,50.578125-15.004883v-28.798828c-12.826172,10.40625-28.314453,14.27832-45.738281,14.27832-19.118164,0-33.638672-6.049805-37.75293-24.442383h87.605469c.726562-5.807617.96875-11.131836.96875-15.97168ZM1149.675885,168.147894c3.388672-17.423828,14.27832-24.442383,31.21875-24.442383,14.27832,0,25.410156,6.291992,26.620117,24.442383h-57.838867Z"/>
</svg>
