<svg xmlns="http://www.w3.org/2000/svg" viewBox="0 0 128 128" width="128" height="128">
  <path fill="#ea4335" d="M80.6 40.3h.4l-.2-.2 14-14v-.3c-11.8-10.4-29.1-13-43.5-6.6C36.9 25.6 27.3 39 25.4 54.3c.2-.1.5-.2.8-.2 5.5-3.6 12-5.5 18.6-5.5 2.2 0 4.5.2 6.6.6.1-.1.2-.1.3-.1 8.9-9.8 24-11 34.3-2.5.1.1.2.1.3.1z"/>
  <path fill="#4285f4" d="M110.2 54.1c-2.2-8.1-6.7-15.4-13-21l-14 14c5.7 4.6 8.9 11.6 8.8 18.9v2.3c9.7 0 17.5 7.9 17.5 17.5 0 9.7-7.9 17.5-17.5 17.5H70.4l-1.7 1.8v20.9l1.7 1.7h21.9c15.7.1 29.6-10 34.4-25 4.7-15-.7-31.3-13.5-40.5z"/>
  <path fill="#34a853" d="M48.5 126.5h21.9v-17.5H48.5c-2.5 0-4.9-.5-7.2-1.6l-3.1 1.5-13.9 14.1-1.3 3.1c6.6 5 14.6 7.6 22.5 6.4z"/>
  <path fill="#fbbc05" d="M48.5 48.6c-15.9.1-30 10.3-35 25.4-5 15.1.3 31.7 13.1 41.2l16.9-16.9c-8.8-4-12.7-14.3-8.7-23.1 4-8.8 14.3-12.7 23.1-8.7 3.9 1.8 7 4.9 8.7 8.7l16.9-16.9c-7.2-9.4-18.4-14.8-30.2-14.8z"/>
</svg>
